HIERARCHY
ROOT Hips
{
	OFFSET 53.413898 -11.295815 95.715897
	CHANNELS 6 Xposition Yposition Zposition Xrotation Yrotation Zrotation
	JOINT spine
	{
		OFFSET 0.000000 -0.458069 7.965683
		CHANNELS 3 Xrotation Yrotation Zrotation
		JOINT spine1
		{
			OFFSET 0.000000 -0.000001 10.243103
			CHANNELS 3 Xrotation Yrotation Zrotation
			JOINT spine2
			{
				OFFSET 0.000000 -0.000002 9.814751
				CHANNELS 3 Xrotation Yrotation Zrotation
				JOINT Neck
				{
					OFFSET 0.000000 -1.201384 25.198601
					CHANNELS 3 Xrotation Yrotation Zrotation
					JOINT Head
					{
						OFFSET 0.000000 -0.000002 7.613144
						CHANNELS 3 Xrotation Yrotation Zrotation
						End Site
						{
							OFFSET 0.000000 6.077327 18.428101
						}
					}
				}
				JOINT RightShoulder
				{
					OFFSET -4.132702 0.575449 10.599205
					CHANNELS 3 Xrotation Yrotation Zrotation
					JOINT RightArm
					{
						OFFSET 0.000000 -0.000002 13.901794
						CHANNELS 3 Xrotation Yrotation Zrotation
						JOINT RightArmRoll
						{
							OFFSET 0.000000 -0.000002 7.017883
							CHANNELS 3 Xrotation Yrotation Zrotation
							JOINT RightForeArm
							{
								OFFSET 0.000000 -0.000003 20.440598
								CHANNELS 3 Xrotation Yrotation Zrotation
								JOINT RightForeArmRoll
								{
									OFFSET 0.000000 -0.000001 7.875153
									CHANNELS 3 Xrotation Yrotation Zrotation
									JOINT RightHand
									{
										OFFSET 0.000000 -0.000003 15.803696
										CHANNELS 3 Xrotation Yrotation Zrotation
										End Site
										{
											OFFSET 0.000000 0.000000 0.100006
										}
									}
								}
							}
						}
					}
				}
				JOINT LeftShoulder
				{
					OFFSET 4.132702 0.575449 10.599205
					CHANNELS 3 Xrotation Yrotation Zrotation
					JOINT LeftArm
					{
						OFFSET 0.000000 -0.000002 13.901794
						CHANNELS 3 Xrotation Yrotation Zrotation
						JOINT LeftArmRoll
						{
							OFFSET 0.000000 -0.000002 7.017883
							CHANNELS 3 Xrotation Yrotation Zrotation
							JOINT LeftForeArm
							{
								OFFSET 0.000000 -0.000003 20.440598
								CHANNELS 3 Xrotation Yrotation Zrotation
								JOINT LeftForeArmRoll
								{
									OFFSET 0.000000 -0.000001 7.875153
									CHANNELS 3 Xrotation Yrotation Zrotation
									JOINT LeftHand
									{
										OFFSET 0.000000 -0.000003 15.803696
										CHANNELS 3 Xrotation Yrotation Zrotation
										End Site
										{
											OFFSET 0.000000 0.000000 0.100006
										}
									}
								}
							}
						}
					}
				}
			}
		}
	}
	JOINT RightUpLeg
	{
		OFFSET -7.060482 1.086100 -1.294701
		CHANNELS 3 Xrotation Yrotation Zrotation
		JOINT RightUpLegRoll
		{
			OFFSET 0.000000 -0.000003 18.530800
			CHANNELS 3 Xrotation Yrotation Zrotation
			JOINT RightLeg
			{
				OFFSET 0.000000 0.000004 -22.947601
				CHANNELS 3 Xrotation Yrotation Zrotation
				JOINT RightLegRoll
				{
					OFFSET 0.000000 -0.000004 23.022598
					CHANNELS 3 Xrotation Yrotation Zrotation
					JOINT RightFoot
					{
						OFFSET 0.000000 -0.000004 19.162506
						CHANNELS 3 Xrotation Yrotation Zrotation
						JOINT RightToeBase
						{
							OFFSET 0.000000 -0.000002 16.018799
							CHANNELS 3 Xrotation Yrotation Zrotation
							End Site
							{
								OFFSET 0.006790 0.894205 7.757828
							}
						}
					}
				}
			}
		}
	}
	JOINT LeftUpLeg
	{
		OFFSET 7.060482 1.086100 -1.294701
		CHANNELS 3 Xrotation Yrotation Zrotation
		JOINT LeftUpLegRoll
		{
			OFFSET 0.000000 -0.000003 18.530899
			CHANNELS 3 Xrotation Yrotation Zrotation
			JOINT LeftLeg
			{
				OFFSET 0.000000 -0.000004 22.947502
				CHANNELS 3 Xrotation Yrotation Zrotation
				JOINT LeftLegRoll
				{
					OFFSET 0.000000 -0.000004 23.235504
					CHANNELS 3 Xrotation Yrotation Zrotation
					JOINT LeftFoot
					{
						OFFSET 0.000000 -0.000003 18.949600
						CHANNELS 3 Xrotation Yrotation Zrotation
						JOINT LeftToeBase
						{
							OFFSET 0.000000 -0.000003 16.018799
							CHANNELS 3 Xrotation Yrotation Zrotation
							End Site
							{
								OFFSET -0.030430 0.894205 7.757828
							}
						}
					}
				}
			}
		}
	}
}
MOTION
Frames: 4
Frame Time: 0.041667
53.151196 -11.181314 95.743492 -1.409891 -0.499485 1.411096 -1.524315 0.676350 0.279958 0.940570 1.352318 0.575804 2.585808 1.359116 0.559552 23.563832 -23.486087 0.708520 1.357734 18.113844 -2.561242 -18.110144 -18.029527 -21.154974 -144.395089 -191.824128 -81.650247 -0.000001 0.000004 0.000006 58.618910 10.707246 6.758855 0.000003 0.000004 -3.001660 -5.000158 -8.000109 0.000004 14.956600 69.612250 -15.184100 -61.336403 111.545541 37.098381 0.000004 -0.000001 -0.000005 0.467169 0.453400 -0.406307 -0.000002 -0.000007 3.012189 -5.000137 8.000118 -0.000001 2.569227 -173.770217 -0.582937 179.999991 -0.000005 -1.168996 175.099727 -2.530733 -0.581902 -0.000002 0.000004 0.078016 69.714785 6.926757 1.983523 25.761894 -7.355087 0.449618 0.611806 174.556317 0.903566 -0.000020 -0.000005 -1.148280 -4.363286 1.727182 0.213734 -0.000006 -0.000002 -0.040281 69.052564 -6.903755 -2.099355 25.456950 7.355622 -0.000004 
53.150902 -11.199114 95.744492 -1.415942 -0.495498 1.407312 -1.524168 0.674388 0.280406 0.941476 1.348028 0.577176 2.586714 1.354848 0.560973 23.559850 -23.463303 0.698150 1.362661 18.086416 -2.567276 -18.102547 -18.078269 -21.143496 -144.353275 -191.778612 -81.713665 -0.000000 0.000002 0.000006 58.466836 10.724555 6.709350 -0.000001 0.000005 -3.001659 -5.000156 -8.000108 0.000003 14.946877 69.640404 -15.168124 -61.363171 111.530494 37.120456 0.000005 -0.000001 -0.000006 0.483925 0.456231 -0.406535 -0.000002 -0.000007 3.012182 -5.000137 8.000119 -0.000001 2.578136 -173.770271 -0.578643 179.999991 -0.000005 -1.168996 175.104576 -2.534726 -0.582028 -0.000002 0.000004 0.077791 69.711581 6.926990 1.983566 25.762203 -7.355086 0.449976 0.617466 174.553312 0.900434 -0.000020 -0.000005 -1.148560 -4.367220 1.728071 0.214067 -0.000006 -0.000002 -0.040266 69.050945 -6.902649 -2.101152 25.456952 7.355621 -0.000005 
53.156998 -11.199711 95.745300 -1.422041 -0.491415 1.402891 -1.524065 0.672356 0.280806 0.942427 1.343548 0.578452 2.587659 1.350382 0.562304 23.553942 -23.439693 0.687488 1.369970 18.059871 -2.573603 -18.094406 -18.127746 -21.131335 -144.311092 -191.731333 -81.775881 0.000000 -0.000000 0.000006 58.311176 10.742915 6.659176 -0.000000 0.000004 -3.001661 -5.000160 -8.000109 0.000005 14.935349 69.670163 -15.149858 -61.393879 111.514142 37.147541 0.000006 -0.000001 -0.000005 0.502239 0.460549 -0.406771 0.000001 -0.000007 3.012178 -5.000134 8.000119 0.000001 2.587021 -173.770312 -0.575166 179.999991 -0.000005 -1.168996 175.109426 -2.537739 -0.582069 -0.000002 0.000004 0.077539 69.709020 6.927247 1.983570 25.762408 -7.355082 0.450076 0.623082 174.551317 0.897215 -0.000020 -0.000005 -1.148810 -4.371494 1.729039 0.214403 -0.000007 -0.000003 -0.040250 69.049353 -6.901298 -2.103199 25.456948 7.355623 -0.000004 
53.161995 -11.197616 95.743202 -1.428169 -0.487267 1.397882 -1.523993 0.670267 0.281161 0.943390 1.338908 0.579633 2.588614 1.345755 0.563541 23.546387 -23.415490 0.676642 1.379205 18.033909 -2.580095 -18.085808 -18.177848 -21.118294 -144.268635 -191.681732 -81.837489 -0.000000 0.000002 0.000006 58.152019 10.762286 6.608309 0.000003 0.000003 -3.001658 -5.000157 -8.000110 0.000006 14.922012 69.701193 -15.129362 -61.423946 111.497374 37.174527 0.000004 -0.000000 -0.000005 0.521513 0.466201 -0.406995 -0.000001 -0.000006 3.012179 -5.000136 8.000119 -0.000001 2.595896 -173.770353 -0.572379 179.999991 -0.000004 -1.168995 175.114302 -2.540751 -0.583106 -0.000002 0.000004 0.077263 69.706875 6.927516 1.983553 25.762408 -7.355084 0.449947 0.628641 174.549323 0.893928 -0.000020 -0.000005 -1.149050 -4.376099 1.730065 0.214738 -0.000007 -0.000003 -0.040235 69.047810 -6.899737 -2.105707 25.456945 7.355622 -0.000005 
